<mxfile host="app.diagrams.net" modified="2022-10-20T08:17:59.173Z" agent="5.0 (Windows NT 10.0; WOW64) AppleWebKit/537.36 (KHTML, like Gecko) Chrome/86.0.4240.198 Safari/537.36" etag="uhz0UqHKw-8cetdFJU1Y" version="20.4.1" type="github">
  <diagram id="zs993jp3kKrHLNpkvuHx" name="第 1 页">
    <mxGraphModel dx="734" dy="429" grid="1" gridSize="10" guides="1" tooltips="1" connect="1" arrows="1" fold="1" page="1" pageScale="1" pageWidth="827" pageHeight="1169" math="0" shadow="0">
      <root>
        <mxCell id="0" />
        <mxCell id="1" parent="0" />
        <mxCell id="BtOU0PVxxix125_MvbPr-1" value="" style="strokeWidth=2;html=1;shape=mxgraph.flowchart.annotation_2;align=left;labelPosition=right;pointerEvents=1;direction=south;" vertex="1" parent="1">
          <mxGeometry x="104.5" y="52" width="590" height="20" as="geometry" />
        </mxCell>
        <mxCell id="BtOU0PVxxix125_MvbPr-3" value="输入目标区域" style="rounded=0;whiteSpace=wrap;html=1;" vertex="1" parent="1">
          <mxGeometry x="347" y="10" width="105" height="40" as="geometry" />
        </mxCell>
        <mxCell id="BtOU0PVxxix125_MvbPr-4" value="" style="endArrow=none;html=1;rounded=0;strokeWidth=5;" edge="1" parent="1">
          <mxGeometry width="50" height="50" relative="1" as="geometry">
            <mxPoint x="104.5" y="100" as="sourcePoint" />
            <mxPoint x="254.5" y="100" as="targetPoint" />
          </mxGeometry>
        </mxCell>
        <mxCell id="BtOU0PVxxix125_MvbPr-7" value="" style="endArrow=none;html=1;rounded=0;fillColor=#f8cecc;strokeColor=#FF3333;strokeWidth=5;" edge="1" parent="1">
          <mxGeometry width="50" height="50" relative="1" as="geometry">
            <mxPoint x="104.5" y="110" as="sourcePoint" />
            <mxPoint x="160" y="110" as="targetPoint" />
          </mxGeometry>
        </mxCell>
        <mxCell id="BtOU0PVxxix125_MvbPr-8" value="" style="endArrow=none;html=1;rounded=0;" edge="1" parent="1">
          <mxGeometry width="50" height="50" relative="1" as="geometry">
            <mxPoint x="104.5" y="90" as="sourcePoint" />
            <mxPoint x="105" y="170" as="targetPoint" />
          </mxGeometry>
        </mxCell>
        <mxCell id="BtOU0PVxxix125_MvbPr-10" value="" style="endArrow=none;html=1;rounded=0;fillColor=#f8cecc;strokeColor=#FF3333;strokeWidth=5;" edge="1" parent="1">
          <mxGeometry width="50" height="50" relative="1" as="geometry">
            <mxPoint x="124.5" y="130" as="sourcePoint" />
            <mxPoint x="180" y="130" as="targetPoint" />
          </mxGeometry>
        </mxCell>
        <mxCell id="BtOU0PVxxix125_MvbPr-12" value="" style="endArrow=none;html=1;rounded=0;fillColor=#f8cecc;strokeColor=#FF3333;strokeWidth=5;" edge="1" parent="1">
          <mxGeometry width="50" height="50" relative="1" as="geometry">
            <mxPoint x="144.5" y="150" as="sourcePoint" />
            <mxPoint x="200" y="150" as="targetPoint" />
          </mxGeometry>
        </mxCell>
        <mxCell id="BtOU0PVxxix125_MvbPr-14" value="" style="endArrow=none;html=1;rounded=0;" edge="1" parent="1">
          <mxGeometry width="50" height="50" relative="1" as="geometry">
            <mxPoint x="124.5" y="90" as="sourcePoint" />
            <mxPoint x="125" y="170" as="targetPoint" />
          </mxGeometry>
        </mxCell>
        <mxCell id="BtOU0PVxxix125_MvbPr-15" value="" style="endArrow=none;html=1;rounded=0;" edge="1" parent="1">
          <mxGeometry width="50" height="50" relative="1" as="geometry">
            <mxPoint x="200" y="88" as="sourcePoint" />
            <mxPoint x="200.5" y="168" as="targetPoint" />
          </mxGeometry>
        </mxCell>
        <mxCell id="BtOU0PVxxix125_MvbPr-16" value="" style="endArrow=none;html=1;rounded=0;" edge="1" parent="1">
          <mxGeometry width="50" height="50" relative="1" as="geometry">
            <mxPoint x="144.5" y="90" as="sourcePoint" />
            <mxPoint x="145" y="170" as="targetPoint" />
          </mxGeometry>
        </mxCell>
        <mxCell id="BtOU0PVxxix125_MvbPr-25" value="" style="endArrow=block;startArrow=block;endFill=1;startFill=1;html=1;rounded=0;strokeColor=#000000;" edge="1" parent="1">
          <mxGeometry width="160" relative="1" as="geometry">
            <mxPoint x="104.5" y="160" as="sourcePoint" />
            <mxPoint x="124.5" y="160" as="targetPoint" />
            <Array as="points" />
          </mxGeometry>
        </mxCell>
        <mxCell id="BtOU0PVxxix125_MvbPr-26" value="" style="endArrow=block;startArrow=block;endFill=1;startFill=1;html=1;rounded=0;strokeColor=#000000;" edge="1" parent="1">
          <mxGeometry width="160" relative="1" as="geometry">
            <mxPoint x="148" y="159" as="sourcePoint" />
            <mxPoint x="196" y="159" as="targetPoint" />
            <Array as="points">
              <mxPoint x="176" y="159" />
            </Array>
          </mxGeometry>
        </mxCell>
        <mxCell id="BtOU0PVxxix125_MvbPr-27" value="探针步长" style="text;html=1;strokeColor=none;fillColor=none;align=center;verticalAlign=middle;whiteSpace=wrap;rounded=0;fontSize=8;" vertex="1" parent="1">
          <mxGeometry x="91" y="172" width="50" height="20" as="geometry" />
        </mxCell>
        <mxCell id="BtOU0PVxxix125_MvbPr-28" value="探针长度" style="text;html=1;strokeColor=none;fillColor=none;align=center;verticalAlign=middle;whiteSpace=wrap;rounded=0;fontSize=8;" vertex="1" parent="1">
          <mxGeometry x="150" y="172" width="50" height="20" as="geometry" />
        </mxCell>
        <mxCell id="BtOU0PVxxix125_MvbPr-29" value="" style="endArrow=none;html=1;rounded=0;strokeWidth=5;" edge="1" parent="1">
          <mxGeometry width="50" height="50" relative="1" as="geometry">
            <mxPoint x="317.5" y="100" as="sourcePoint" />
            <mxPoint x="467.5" y="100" as="targetPoint" />
          </mxGeometry>
        </mxCell>
        <mxCell id="BtOU0PVxxix125_MvbPr-30" value="" style="endArrow=none;html=1;rounded=0;fillColor=#f8cecc;strokeColor=#FF3333;strokeWidth=5;" edge="1" parent="1">
          <mxGeometry width="50" height="50" relative="1" as="geometry">
            <mxPoint x="317.5" y="110" as="sourcePoint" />
            <mxPoint x="373" y="110" as="targetPoint" />
          </mxGeometry>
        </mxCell>
        <mxCell id="BtOU0PVxxix125_MvbPr-31" value="" style="endArrow=none;html=1;rounded=0;" edge="1" parent="1">
          <mxGeometry width="50" height="50" relative="1" as="geometry">
            <mxPoint x="317.5" y="90" as="sourcePoint" />
            <mxPoint x="318" y="170" as="targetPoint" />
          </mxGeometry>
        </mxCell>
        <mxCell id="BtOU0PVxxix125_MvbPr-32" value="" style="endArrow=none;html=1;rounded=0;fillColor=#f8cecc;strokeColor=#FF3333;strokeWidth=5;" edge="1" parent="1">
          <mxGeometry width="50" height="50" relative="1" as="geometry">
            <mxPoint x="337.5" y="130" as="sourcePoint" />
            <mxPoint x="393" y="130" as="targetPoint" />
          </mxGeometry>
        </mxCell>
        <mxCell id="BtOU0PVxxix125_MvbPr-33" value="" style="endArrow=none;html=1;rounded=0;fillColor=#f8cecc;strokeColor=#FF3333;strokeWidth=5;" edge="1" parent="1">
          <mxGeometry width="50" height="50" relative="1" as="geometry">
            <mxPoint x="357.5" y="150" as="sourcePoint" />
            <mxPoint x="413" y="150" as="targetPoint" />
          </mxGeometry>
        </mxCell>
        <mxCell id="BtOU0PVxxix125_MvbPr-34" value="" style="endArrow=none;html=1;rounded=0;" edge="1" parent="1">
          <mxGeometry width="50" height="50" relative="1" as="geometry">
            <mxPoint x="337.5" y="90" as="sourcePoint" />
            <mxPoint x="338" y="170" as="targetPoint" />
          </mxGeometry>
        </mxCell>
        <mxCell id="BtOU0PVxxix125_MvbPr-35" value="" style="endArrow=none;html=1;rounded=0;" edge="1" parent="1">
          <mxGeometry width="50" height="50" relative="1" as="geometry">
            <mxPoint x="413" y="88" as="sourcePoint" />
            <mxPoint x="413.5" y="168" as="targetPoint" />
          </mxGeometry>
        </mxCell>
        <mxCell id="BtOU0PVxxix125_MvbPr-36" value="" style="endArrow=none;html=1;rounded=0;" edge="1" parent="1">
          <mxGeometry width="50" height="50" relative="1" as="geometry">
            <mxPoint x="357.5" y="90" as="sourcePoint" />
            <mxPoint x="358" y="170" as="targetPoint" />
          </mxGeometry>
        </mxCell>
        <mxCell id="BtOU0PVxxix125_MvbPr-37" value="" style="endArrow=block;startArrow=block;endFill=1;startFill=1;html=1;rounded=0;strokeColor=#000000;" edge="1" parent="1">
          <mxGeometry width="160" relative="1" as="geometry">
            <mxPoint x="317.5" y="160" as="sourcePoint" />
            <mxPoint x="337.5" y="160" as="targetPoint" />
            <Array as="points" />
          </mxGeometry>
        </mxCell>
        <mxCell id="BtOU0PVxxix125_MvbPr-38" value="" style="endArrow=block;startArrow=block;endFill=1;startFill=1;html=1;rounded=0;strokeColor=#000000;" edge="1" parent="1">
          <mxGeometry width="160" relative="1" as="geometry">
            <mxPoint x="361" y="159" as="sourcePoint" />
            <mxPoint x="409" y="159" as="targetPoint" />
            <Array as="points">
              <mxPoint x="389" y="159" />
            </Array>
          </mxGeometry>
        </mxCell>
        <mxCell id="BtOU0PVxxix125_MvbPr-39" value="" style="endArrow=none;html=1;rounded=0;strokeWidth=5;" edge="1" parent="1">
          <mxGeometry width="50" height="50" relative="1" as="geometry">
            <mxPoint x="547.5" y="99" as="sourcePoint" />
            <mxPoint x="697.5" y="99" as="targetPoint" />
          </mxGeometry>
        </mxCell>
        <mxCell id="BtOU0PVxxix125_MvbPr-40" value="" style="endArrow=none;html=1;rounded=0;fillColor=#f8cecc;strokeColor=#FF3333;strokeWidth=5;" edge="1" parent="1">
          <mxGeometry width="50" height="50" relative="1" as="geometry">
            <mxPoint x="547.5" y="109" as="sourcePoint" />
            <mxPoint x="603" y="109" as="targetPoint" />
          </mxGeometry>
        </mxCell>
        <mxCell id="BtOU0PVxxix125_MvbPr-41" value="" style="endArrow=none;html=1;rounded=0;" edge="1" parent="1">
          <mxGeometry width="50" height="50" relative="1" as="geometry">
            <mxPoint x="547.5" y="89" as="sourcePoint" />
            <mxPoint x="548" y="169" as="targetPoint" />
          </mxGeometry>
        </mxCell>
        <mxCell id="BtOU0PVxxix125_MvbPr-42" value="" style="endArrow=none;html=1;rounded=0;fillColor=#f8cecc;strokeColor=#FF3333;strokeWidth=5;" edge="1" parent="1">
          <mxGeometry width="50" height="50" relative="1" as="geometry">
            <mxPoint x="567.5" y="129" as="sourcePoint" />
            <mxPoint x="623" y="129" as="targetPoint" />
          </mxGeometry>
        </mxCell>
        <mxCell id="BtOU0PVxxix125_MvbPr-43" value="" style="endArrow=none;html=1;rounded=0;fillColor=#f8cecc;strokeColor=#FF3333;strokeWidth=5;" edge="1" parent="1">
          <mxGeometry width="50" height="50" relative="1" as="geometry">
            <mxPoint x="587.5" y="149" as="sourcePoint" />
            <mxPoint x="643" y="149" as="targetPoint" />
          </mxGeometry>
        </mxCell>
        <mxCell id="BtOU0PVxxix125_MvbPr-44" value="" style="endArrow=none;html=1;rounded=0;" edge="1" parent="1">
          <mxGeometry width="50" height="50" relative="1" as="geometry">
            <mxPoint x="567.5" y="89" as="sourcePoint" />
            <mxPoint x="568" y="169" as="targetPoint" />
          </mxGeometry>
        </mxCell>
        <mxCell id="BtOU0PVxxix125_MvbPr-45" value="" style="endArrow=none;html=1;rounded=0;" edge="1" parent="1">
          <mxGeometry width="50" height="50" relative="1" as="geometry">
            <mxPoint x="587.5" y="89" as="sourcePoint" />
            <mxPoint x="588" y="169" as="targetPoint" />
          </mxGeometry>
        </mxCell>
        <mxCell id="BtOU0PVxxix125_MvbPr-46" value="" style="endArrow=block;startArrow=block;endFill=1;startFill=1;html=1;rounded=0;strokeColor=#000000;" edge="1" parent="1">
          <mxGeometry width="160" relative="1" as="geometry">
            <mxPoint x="547.5" y="159" as="sourcePoint" />
            <mxPoint x="567.5" y="159" as="targetPoint" />
            <Array as="points" />
          </mxGeometry>
        </mxCell>
        <mxCell id="BtOU0PVxxix125_MvbPr-47" value="" style="endArrow=block;startArrow=block;endFill=1;startFill=1;html=1;rounded=0;strokeColor=#000000;" edge="1" parent="1">
          <mxGeometry width="160" relative="1" as="geometry">
            <mxPoint x="591" y="158" as="sourcePoint" />
            <mxPoint x="639" y="158" as="targetPoint" />
            <Array as="points">
              <mxPoint x="619" y="158" />
            </Array>
          </mxGeometry>
        </mxCell>
        <mxCell id="BtOU0PVxxix125_MvbPr-48" value="探针步长" style="text;html=1;strokeColor=none;fillColor=none;align=center;verticalAlign=middle;whiteSpace=wrap;rounded=0;fontSize=8;" vertex="1" parent="1">
          <mxGeometry x="534" y="171" width="50" height="20" as="geometry" />
        </mxCell>
        <mxCell id="BtOU0PVxxix125_MvbPr-49" value="探针长度" style="text;html=1;strokeColor=none;fillColor=none;align=center;verticalAlign=middle;whiteSpace=wrap;rounded=0;fontSize=8;" vertex="1" parent="1">
          <mxGeometry x="593" y="171" width="50" height="20" as="geometry" />
        </mxCell>
        <mxCell id="BtOU0PVxxix125_MvbPr-50" value="探针步长" style="text;html=1;strokeColor=none;fillColor=none;align=center;verticalAlign=middle;whiteSpace=wrap;rounded=0;fontSize=8;" vertex="1" parent="1">
          <mxGeometry x="310" y="172" width="50" height="20" as="geometry" />
        </mxCell>
        <mxCell id="BtOU0PVxxix125_MvbPr-51" value="探针长度" style="text;html=1;strokeColor=none;fillColor=none;align=center;verticalAlign=middle;whiteSpace=wrap;rounded=0;fontSize=8;" vertex="1" parent="1">
          <mxGeometry x="369" y="172" width="50" height="20" as="geometry" />
        </mxCell>
        <mxCell id="BtOU0PVxxix125_MvbPr-52" value="目标区域1" style="text;html=1;strokeColor=none;fillColor=none;align=center;verticalAlign=middle;whiteSpace=wrap;rounded=0;fontSize=8;" vertex="1" parent="1">
          <mxGeometry x="120" y="66" width="60" height="20" as="geometry" />
        </mxCell>
        <mxCell id="BtOU0PVxxix125_MvbPr-53" value="目标区域2" style="text;html=1;strokeColor=none;fillColor=none;align=center;verticalAlign=middle;whiteSpace=wrap;rounded=0;fontSize=8;" vertex="1" parent="1">
          <mxGeometry x="330" y="66" width="60" height="20" as="geometry" />
        </mxCell>
        <mxCell id="BtOU0PVxxix125_MvbPr-54" value="目标区域3" style="text;html=1;strokeColor=none;fillColor=none;align=center;verticalAlign=middle;whiteSpace=wrap;rounded=0;fontSize=8;" vertex="1" parent="1">
          <mxGeometry x="560" y="66" width="60" height="20" as="geometry" />
        </mxCell>
        <mxCell id="BtOU0PVxxix125_MvbPr-55" style="edgeStyle=orthogonalEdgeStyle;rounded=0;orthogonalLoop=1;jettySize=auto;html=1;exitX=0.5;exitY=1;exitDx=0;exitDy=0;strokeColor=#000000;fontSize=8;" edge="1" parent="1" source="BtOU0PVxxix125_MvbPr-54" target="BtOU0PVxxix125_MvbPr-54">
          <mxGeometry relative="1" as="geometry" />
        </mxCell>
        <mxCell id="BtOU0PVxxix125_MvbPr-57" value="" style="endArrow=none;html=1;rounded=0;" edge="1" parent="1">
          <mxGeometry width="50" height="50" relative="1" as="geometry">
            <mxPoint x="643" y="86" as="sourcePoint" />
            <mxPoint x="643.5" y="166" as="targetPoint" />
          </mxGeometry>
        </mxCell>
        <mxCell id="BtOU0PVxxix125_MvbPr-60" value="" style="endArrow=classic;html=1;rounded=0;strokeColor=#000000;strokeWidth=1;fontSize=8;" edge="1" parent="1">
          <mxGeometry width="50" height="50" relative="1" as="geometry">
            <mxPoint x="117" y="207" as="sourcePoint" />
            <mxPoint x="157" y="247" as="targetPoint" />
          </mxGeometry>
        </mxCell>
        <mxCell id="BtOU0PVxxix125_MvbPr-61" value="设计开始" style="text;html=1;strokeColor=none;fillColor=none;align=center;verticalAlign=middle;whiteSpace=wrap;rounded=0;fontSize=8;" vertex="1" parent="1">
          <mxGeometry x="150" y="210" width="50" height="20" as="geometry" />
        </mxCell>
        <mxCell id="BtOU0PVxxix125_MvbPr-63" value="从目标区域选择一条探针" style="rounded=0;whiteSpace=wrap;html=1;" vertex="1" parent="1">
          <mxGeometry x="120" y="250" width="105" height="40" as="geometry" />
        </mxCell>
        <mxCell id="BtOU0PVxxix125_MvbPr-64" value="" style="endArrow=classic;html=1;rounded=0;strokeColor=#000000;strokeWidth=1;fontSize=8;" edge="1" parent="1">
          <mxGeometry width="50" height="50" relative="1" as="geometry">
            <mxPoint x="225" y="269.5" as="sourcePoint" />
            <mxPoint x="280" y="270" as="targetPoint" />
          </mxGeometry>
        </mxCell>
        <mxCell id="BtOU0PVxxix125_MvbPr-65" value="探针是否合格" style="rhombus;whiteSpace=wrap;html=1;fontSize=8;" vertex="1" parent="1">
          <mxGeometry x="279" y="245" width="90" height="50" as="geometry" />
        </mxCell>
        <mxCell id="BtOU0PVxxix125_MvbPr-66" value="" style="endArrow=classic;html=1;rounded=0;strokeColor=#000000;strokeWidth=1;fontSize=8;" edge="1" parent="1">
          <mxGeometry width="50" height="50" relative="1" as="geometry">
            <mxPoint x="323.5" y="295" as="sourcePoint" />
            <mxPoint x="324" y="340" as="targetPoint" />
          </mxGeometry>
        </mxCell>
        <mxCell id="BtOU0PVxxix125_MvbPr-67" value="" style="endArrow=classic;html=1;rounded=0;strokeColor=#000000;strokeWidth=1;fontSize=8;" edge="1" parent="1">
          <mxGeometry width="50" height="50" relative="1" as="geometry">
            <mxPoint x="370" y="270" as="sourcePoint" />
            <mxPoint x="440" y="270" as="targetPoint" />
          </mxGeometry>
        </mxCell>
        <mxCell id="BtOU0PVxxix125_MvbPr-68" value="是" style="text;html=1;strokeColor=none;fillColor=none;align=center;verticalAlign=middle;whiteSpace=wrap;rounded=0;fontSize=8;" vertex="1" parent="1">
          <mxGeometry x="330" y="310" width="50" height="20" as="geometry" />
        </mxCell>
        <mxCell id="BtOU0PVxxix125_MvbPr-69" value="否" style="text;html=1;strokeColor=none;fillColor=none;align=center;verticalAlign=middle;whiteSpace=wrap;rounded=0;fontSize=8;" vertex="1" parent="1">
          <mxGeometry x="374.5" y="245" width="50" height="20" as="geometry" />
        </mxCell>
        <mxCell id="BtOU0PVxxix125_MvbPr-71" value="还有区域&lt;br&gt;需要设计" style="rhombus;whiteSpace=wrap;html=1;fontSize=8;" vertex="1" parent="1">
          <mxGeometry x="279" y="344" width="90" height="50" as="geometry" />
        </mxCell>
        <mxCell id="BtOU0PVxxix125_MvbPr-72" value="" style="curved=1;endArrow=classic;html=1;rounded=0;strokeColor=#000000;strokeWidth=1;fontSize=8;" edge="1" parent="1">
          <mxGeometry width="50" height="50" relative="1" as="geometry">
            <mxPoint x="270" y="370" as="sourcePoint" />
            <mxPoint x="170" y="300" as="targetPoint" />
            <Array as="points">
              <mxPoint x="190" y="350" />
            </Array>
          </mxGeometry>
        </mxCell>
        <mxCell id="BtOU0PVxxix125_MvbPr-74" value="是" style="text;html=1;strokeColor=none;fillColor=none;align=center;verticalAlign=middle;whiteSpace=wrap;rounded=0;fontSize=8;" vertex="1" parent="1">
          <mxGeometry x="200" y="324" width="50" height="20" as="geometry" />
        </mxCell>
        <mxCell id="BtOU0PVxxix125_MvbPr-76" value="" style="endArrow=classic;html=1;rounded=0;strokeColor=#000000;strokeWidth=1;fontSize=8;" edge="1" parent="1">
          <mxGeometry width="50" height="50" relative="1" as="geometry">
            <mxPoint x="369" y="368.5" as="sourcePoint" />
            <mxPoint x="439" y="368.5" as="targetPoint" />
          </mxGeometry>
        </mxCell>
        <mxCell id="BtOU0PVxxix125_MvbPr-77" value="否" style="text;html=1;strokeColor=none;fillColor=none;align=center;verticalAlign=middle;whiteSpace=wrap;rounded=0;fontSize=8;" vertex="1" parent="1">
          <mxGeometry x="369" y="344" width="50" height="20" as="geometry" />
        </mxCell>
        <mxCell id="BtOU0PVxxix125_MvbPr-78" value="退出程序" style="rounded=0;whiteSpace=wrap;html=1;" vertex="1" parent="1">
          <mxGeometry x="441" y="347" width="80" height="40" as="geometry" />
        </mxCell>
        <mxCell id="BtOU0PVxxix125_MvbPr-79" value="还有可设计区域" style="rhombus;whiteSpace=wrap;html=1;fontSize=8;" vertex="1" parent="1">
          <mxGeometry x="441" y="245" width="119" height="55" as="geometry" />
        </mxCell>
        <mxCell id="BtOU0PVxxix125_MvbPr-80" value="是" style="text;html=1;strokeColor=none;fillColor=none;align=center;verticalAlign=middle;whiteSpace=wrap;rounded=0;fontSize=8;" vertex="1" parent="1">
          <mxGeometry x="560" y="245" width="50" height="20" as="geometry" />
        </mxCell>
        <mxCell id="BtOU0PVxxix125_MvbPr-81" value="" style="endArrow=classic;html=1;rounded=0;strokeColor=#000000;strokeWidth=1;fontSize=8;" edge="1" parent="1">
          <mxGeometry width="50" height="50" relative="1" as="geometry">
            <mxPoint x="560" y="272" as="sourcePoint" />
            <mxPoint x="630" y="272" as="targetPoint" />
          </mxGeometry>
        </mxCell>
        <mxCell id="BtOU0PVxxix125_MvbPr-83" value="从目标区域选择下一条探针" style="rounded=0;whiteSpace=wrap;html=1;" vertex="1" parent="1">
          <mxGeometry x="630" y="252.5" width="105" height="40" as="geometry" />
        </mxCell>
        <mxCell id="BtOU0PVxxix125_MvbPr-84" value="" style="endArrow=none;html=1;rounded=0;strokeColor=#000000;strokeWidth=1;fontSize=8;" edge="1" parent="1">
          <mxGeometry width="50" height="50" relative="1" as="geometry">
            <mxPoint x="680" y="252.5" as="sourcePoint" />
            <mxPoint x="680" y="220" as="targetPoint" />
          </mxGeometry>
        </mxCell>
        <mxCell id="BtOU0PVxxix125_MvbPr-85" value="" style="endArrow=none;html=1;rounded=0;strokeColor=#000000;strokeWidth=1;fontSize=8;" edge="1" parent="1">
          <mxGeometry width="50" height="50" relative="1" as="geometry">
            <mxPoint x="319.5" y="219.5" as="sourcePoint" />
            <mxPoint x="679.5" y="219.5" as="targetPoint" />
          </mxGeometry>
        </mxCell>
        <mxCell id="BtOU0PVxxix125_MvbPr-86" value="" style="endArrow=classic;html=1;rounded=0;strokeColor=#000000;strokeWidth=1;fontSize=8;" edge="1" parent="1">
          <mxGeometry width="50" height="50" relative="1" as="geometry">
            <mxPoint x="320" y="220" as="sourcePoint" />
            <mxPoint x="320" y="240" as="targetPoint" />
          </mxGeometry>
        </mxCell>
        <mxCell id="BtOU0PVxxix125_MvbPr-88" value="geneCloudProbe 探针设计流程图" style="text;html=1;strokeColor=none;fillColor=none;align=center;verticalAlign=middle;whiteSpace=wrap;rounded=0;fontSize=16;" vertex="1" parent="1">
          <mxGeometry x="231" y="420" width="290" height="20" as="geometry" />
        </mxCell>
      </root>
    </mxGraphModel>
  </diagram>
</mxfile>
